<?xml version="1.0" encoding="UTF-8"?>
<!-- Generator: visioncortex VTracer 0.6.12 -->
<svg version="1.1" xmlns="http://www.w3.org/2000/svg" width="253" height="249">
<path d="M0 0 C4.19 2.002 7.081 4.983 10.168 8.398 C12.363 10.794 14.43 13.008 17 15 C19.445 15.456 21.399 15.336 23.863 15.078 C26.328 14.988 27.636 15.43 29.812 16.562 C32.696 18.493 34.75 20.723 36.355 23.852 C37.642 28.141 37.288 32.574 37 37 C37.608 37.282 38.217 37.565 38.844 37.855 C43.512 40.333 46.919 44.789 50 49 C51.875 52.22 52.955 54.654 53.434 58.367 C53.445 69.013 53.445 69.013 51.375 73.5 C49.806 76.157 47.945 78.098 45.688 80.188 C44.801 81.116 43.914 82.044 43 83 C42.938 85.562 42.938 85.562 44 88 C44.982 89.677 45.981 91.345 47 93 C48.316 97.331 48.518 101.513 48 106 C46.216 111.896 43.279 116.608 39 121 C38.34 121 37.68 121 37 121 C36.764 121.605 36.528 122.209 36.285 122.832 C35 125 35 125 32.934 126.449 C28.18 128.807 23.705 130.873 18.355 131.195 C12.795 130.734 7.636 128.738 2.992 125.676 C-0.844 122.537 -4.021 118.803 -7.223 115.035 C-9.992 111.865 -12.993 108.942 -16 106 C-23.176 111.91 -29.566 118.54 -36.057 125.184 C-36.921 126.059 -37.785 126.934 -38.676 127.836 C-39.459 128.636 -40.242 129.435 -41.048 130.259 C-41.692 130.834 -42.336 131.408 -43 132 C-43.66 132 -44.32 132 -45 132 C-45.248 132.619 -45.495 133.238 -45.75 133.875 C-46.162 134.576 -46.575 135.278 -47 136 C-48.333 136.667 -49.667 137.333 -51 138 C-51.671 139.331 -52.337 140.665 -53 142 C-54.404 143.658 -54.404 143.658 -56.041 145.3 C-56.655 145.92 -57.269 146.54 -57.902 147.18 C-58.563 147.837 -59.225 148.495 -59.906 149.172 C-60.587 149.854 -61.267 150.537 -61.968 151.24 C-63.405 152.678 -64.844 154.113 -66.286 155.546 C-68.499 157.749 -70.701 159.962 -72.902 162.176 C-74.299 163.571 -75.696 164.966 -77.094 166.359 C-77.755 167.025 -78.417 167.69 -79.098 168.376 C-79.712 168.984 -80.326 169.592 -80.959 170.218 C-81.229 170.487 -81.229 170.487 -82.596 171.85 C-83.059 172.23 -83.523 172.609 -84 173 C-84.66 173 -85.32 173 -86 173 C-86.289 173.577 -86.578 174.155 -86.875 174.75 C-87.917 176.833 -88.958 178.917 -90 181 C-89.476 181.509 -88.951 182.017 -88.411 182.541 C-86.016 184.874 -83.633 187.218 -81.25 189.562 C-80.425 190.362 -79.6 191.162 -78.75 191.986 C-74.305 196.378 -70.573 200.272 -68 206 C-66.767 211.221 -66.535 216.42 -67.488 221.711 C-69.575 227.98 -73.506 232.342 -78.293 236.793 C-82.282 240.045 -86.05 242.505 -91 244 C-95.637 244.72 -99.835 244.758 -104.297 243.195 C-106.284 242.231 -108.133 241.178 -110 240 C-110.99 239.423 -111.98 238.845 -113 238.25 C-113.66 237.838 -114.32 237.425 -115 237 C-115.401 237.459 -115.802 237.918 -116.215 238.391 C-119.977 242.451 -123.502 245.315 -128.684 247.34 C-133.478 248.706 -137.518 248.508 -142.367 247.516 C-148.407 245.625 -151.826 242.346 -156 237.812 C-156.503 237.265 -157.007 236.717 -157.525 236.153 C-159.834 233.757 -161.565 232.135 -164.773 231.137 C-167.375 231 -167.375 231 -169.809 231.047 C-172 231 -172 231 -175.438 229.25 C-178.108 226.905 -179.567 225.244 -181 222 C-181.56 218.865 -181.937 215.782 -182.191 212.609 C-183 210 -183 210 -185.363 207.422 C-185.85 206.981 -185.85 206.981 -188.312 204.75 C-192.216 201.014 -195.603 197.6 -197.48 192.449 C-198.733 186.544 -198.974 180.485 -197.34 174.637 C-195.023 169.472 -191.164 165.743 -187 162 C-187.361 161.524 -187.722 161.049 -188.094 160.559 C-190.524 156.893 -191.88 153.793 -192.543 149.414 C-192.731 144.402 -192.663 139.895 -190.996 135.129 C-187.403 128.568 -182.03 123.353 -176 119 C-172.12 116.832 -168.695 116.073 -164.273 115.883 C-159.582 116.077 -156.262 116.69 -152.239 119.151 C-148.091 121.8 -144.733 124.878 -141.312 128.395 C-140.725 128.987 -140.137 129.579 -139.531 130.189 C-137.68 132.057 -135.84 133.934 -134 135.812 C-132.736 137.091 -131.472 138.369 -130.207 139.646 C-127.13 142.756 -124.062 145.876 -121 149 C-119.876 148.224 -118.756 147.443 -117.637 146.66 C-117.012 146.226 -116.388 145.791 -115.745 145.344 C-113.392 143.532 -111.766 141.374 -110 139 C-107.875 136.687 -107.875 136.687 -106 135 C-105.34 135 -104.68 135 -104 135 C-103.752 134.381 -103.505 133.762 -103.25 133.125 C-102.838 132.424 -102.425 131.722 -102 131 C-100.667 130.333 -99.333 129.667 -98 129 C-97.713 128.409 -97.425 127.817 -97.129 127.208 C-95.76 124.531 -94.059 122.8 -91.938 120.672 C-91.141 119.873 -90.344 119.073 -89.523 118.25 C-88.691 117.425 -87.858 116.6 -87 115.75 C-86.584 115.33 -86.584 115.33 -84.477 113.203 C-83.68 112.409 -82.883 111.615 -82.062 110.797 C-81.332 110.068 -80.601 109.34 -79.848 108.589 C-79.238 108.065 -78.628 107.54 -78 107 C-77.34 107 -76.68 107 -76 107 C-75.866 106.701 -75.866 106.701 -75.188 105.188 C-74.001 103.002 -72.904 101.587 -71 100 C-70.34 100 -69.68 100 -69 100 C-69 99.34 -69 98.68 -69 98 C-66.187 94.874 -63.72 92.86 -60 91 C-59.67 90.01 -59.34 89.02 -59 88 C-57.379 86.289 -55.705 84.627 -54 83 C-53.113 82.072 -52.226 81.144 -51.312 80.188 C-50.931 79.827 -50.931 79.827 -49 78 C-48.34 78 -47.68 78 -47 78 C-47.161 75.855 -47.161 75.855 -48 73 C-49.758 70.949 -51.467 69.16 -53.426 67.324 C-53.97 66.795 -54.514 66.267 -55.074 65.722 C-57.392 63.469 -59.733 61.24 -62.072 59.01 C-63.782 57.373 -65.479 55.724 -67.176 54.074 C-67.699 53.584 -68.222 53.094 -68.761 52.59 C-73.375 48.098 -75.973 43.081 -78 37 C-78.578 32.278 -78.3 28.01 -76.562 23.562 C-73.277 16.898 -67.874 10.803 -61.812 6.5 C-57.004 3.935 -52.747 2.537 -47.223 2.676 C-42.892 3.307 -38.851 4.955 -35 7 C-33.207 8.637 -33.207 8.637 -32 10 C-29.112 8.688 -27.038 7.245 -24.75 5.062 C-21.788 2.513 -19.104 0.621 -15.367 -0.586 C-10.151 -1.498 -5.151 -1.145 0 0 Z M-21 20 C-19.412 23.941 -16.684 26.556 -13.695 29.465 C-13.435 29.722 -13.435 29.722 -12.118 31.026 C-10.459 32.668 -8.792 34.303 -7.125 35.938 C-5.466 37.569 -3.808 39.202 -2.153 40.838 C-1.125 41.854 -0.095 42.867 0.939 43.877 C3.864 46.762 6.479 49.759 9 53 C11.125 55.313 11.125 55.313 13 57 C13.66 57 14.32 57 15 57 C15.248 57.619 15.495 58.237 15.75 58.875 C16.162 59.576 16.575 60.278 17 61 C17.33 61.165 17.33 61.165 19 62 C19.33 62.165 19.33 62.165 21 63 C21.668 64.333 22.334 65.666 23 67 C24.586 68.957 24.586 68.957 26.375 70.812 C26.96 71.438 27.545 72.063 28.148 72.707 C28.759 73.134 29.37 73.56 30 74 C32.059 73.863 32.059 73.863 34 73 C37.322 69.755 38.741 67.924 40 63.438 C40 60 40 60 39 57.5 C36.25 54.062 33.176 51.043 30 48 C25.289 43.396 25.289 43.396 23.312 40.688 C22.879 40.131 22.446 39.574 22 39 C21.34 39 20.68 39 20 39 C19.835 38.505 19.835 38.505 19 36 C18.34 36 17.68 36 17 36 C16.732 35.402 16.464 34.804 16.188 34.188 C15.001 32.002 13.904 30.587 12 29 C11.34 29 10.68 29 10 29 C9.774 28.457 9.549 27.915 9.316 27.355 C6.344 22.037 1.679 17.821 -3 14 C-5.479 12.782 -7.043 12.376 -9.785 12.371 C-14.311 13.656 -17.645 16.819 -21 20 Z M-56 20 C-62.488 25.976 -62.488 25.976 -64 29 C-64.5 32.125 -64.5 32.125 -64 36 C-62.049 39.039 -59.56 41.467 -57 44 C-56.17 44.843 -55.34 45.686 -54.484 46.555 C-51.213 49.855 -47.9 53.113 -44.59 56.375 C-42.155 58.843 -39.796 61.362 -37.445 63.91 C-29.004 73.046 -20.237 81.834 -11.389 90.573 C-6.559 95.357 -1.838 100.176 2.583 105.347 C4.374 107.436 6.252 109.42 8.188 111.375 C8.82 112.022 9.453 112.669 10.105 113.336 C12.026 115.022 13.627 116.065 16 117 C19.357 117.171 20.965 117.199 24 116 C27.816 112.916 31.781 109.438 34 105 C34.182 101.729 34.32 98.934 33.25 95.812 C31.708 93.576 30.044 91.789 28 90 C27.34 90 26.68 90 26 90 C25.67 89.01 25.34 88.02 25 87 C23.375 85.27 21.714 83.639 20 82 C18.559 80.569 17.121 79.136 15.685 77.7 C14.867 76.886 14.05 76.072 13.208 75.234 C10.005 72.042 6.804 68.849 3.604 65.656 C1.177 63.234 -1.252 60.812 -3.682 58.393 C-6.494 55.594 -9.302 52.791 -12.109 49.988 C-12.547 49.553 -12.547 49.553 -14.764 47.349 C-15.568 46.545 -16.373 45.74 -17.202 44.911 C-17.913 44.203 -18.624 43.494 -19.357 42.763 C-21 41 -21 41 -22 39 C-22.66 39 -23.32 39 -24 39 C-24.165 38.505 -24.165 38.505 -25 36 C-25.701 35.443 -26.403 34.886 -27.125 34.312 C-29.563 32.352 -31.315 30.555 -33.312 28.188 C-36.867 24.069 -40.462 20.056 -45 17 C-49.675 16.083 -52.261 17.173 -56 20 Z M-38 85 C-39.509 86.132 -39.509 86.132 -41.132 87.751 C-41.441 88.056 -41.441 88.056 -43.006 89.599 C-43.678 90.277 -44.35 90.955 -45.042 91.654 C-45.398 92.007 -45.398 92.007 -47.201 93.797 C-49.562 96.145 -51.912 98.504 -54.262 100.863 C-55.894 102.493 -57.526 104.123 -59.159 105.752 C-62.583 109.171 -66.001 112.596 -69.415 116.024 C-73.8 120.426 -78.199 124.815 -82.601 129.2 C-85.976 132.563 -89.343 135.933 -92.708 139.306 C-94.327 140.927 -95.949 142.547 -97.572 144.164 C-99.838 146.421 -102.093 148.688 -104.346 150.958 C-105.024 151.63 -105.702 152.302 -106.401 152.994 C-107.011 153.612 -107.62 154.231 -108.249 154.868 C-108.783 155.403 -109.318 155.939 -109.868 156.491 C-110.242 156.989 -110.615 157.487 -111 158 C-111 158.99 -111 159.98 -111 161 C-110.34 161 -109.68 161 -109 161 C-108.773 161.557 -108.546 162.114 -108.312 162.688 C-106.594 165.716 -104.672 167.773 -102 170 C-100.039 169.82 -100.039 169.82 -98 169 C-96.297 167.66 -96.297 167.66 -94.75 166.062 C-94.229 165.538 -93.708 165.013 -93.172 164.473 C-92.785 163.987 -92.398 163.501 -92 163 C-92 162.34 -92 161.68 -92 161 C-91.443 160.773 -90.886 160.546 -90.312 160.312 C-87.338 158.624 -85.28 156.533 -83 154 C-83 153.34 -83 152.68 -83 152 C-82.422 151.752 -81.845 151.505 -81.25 151.25 C-78.671 149.817 -76.939 148.216 -75 146 C-75 145.34 -75 144.68 -75 144 C-74.443 143.794 -73.886 143.588 -73.312 143.375 C-70.747 141.849 -69.301 140.008 -67.465 137.69 C-65.872 135.853 -64.17 134.344 -62.314 132.773 C-58.095 129.128 -54.144 125.273 -50.219 121.316 C-49.869 120.966 -49.869 120.966 -48.101 119.194 C-45.898 116.986 -43.699 114.774 -41.5 112.562 C-39.995 111.053 -38.49 109.543 -36.984 108.033 C-33.32 104.358 -29.659 100.68 -26 97 C-27.509 93.867 -29.162 91.392 -31.438 88.75 C-32.034 88.044 -32.631 87.337 -33.246 86.609 C-33.825 86.078 -34.404 85.547 -35 85 C-35.99 85 -36.98 85 -38 85 Z M-170 132 C-172.203 133.875 -172.203 133.875 -174.25 136 C-174.936 136.701 -175.622 137.403 -176.328 138.125 C-178 140 -178 140 -179 142 C-179.5 145.125 -179.5 145.125 -179 149 C-177.132 152.088 -174.555 154.473 -172 157 C-170.813 158.187 -169.627 159.375 -168.441 160.562 C-166.5 162.506 -164.556 164.445 -162.595 166.369 C-159.574 169.347 -156.661 172.348 -153.914 175.582 C-148.27 182.126 -142.003 188.102 -135.875 194.188 C-134.6 195.457 -133.325 196.728 -132.051 197.998 C-129.711 200.33 -127.37 202.66 -125.027 204.989 C-124.018 205.993 -123.009 206.996 -122 208 C-121.089 208.905 -120.179 209.811 -119.24 210.744 C-116.948 213.053 -114.781 215.439 -112.625 217.875 C-111.844 218.736 -111.063 219.597 -110.258 220.484 C-108.869 222.032 -107.504 223.6 -106.18 225.203 C-104.537 227.083 -103.065 228.598 -101 230 C-98.569 230.708 -96.728 230.832 -94.207 230.621 C-90.933 229.7 -88.9 228.083 -86.508 225.707 C-83.321 222.099 -81.286 219.402 -80.312 214.625 C-81.017 210.911 -81.575 209.894 -83.938 207.125 C-85.271 205.73 -86.627 204.356 -88 203 C-88.378 202.621 -88.378 202.621 -90.293 200.703 C-91.829 199.17 -93.37 197.642 -94.918 196.121 C-96.713 194.292 -98.341 192.438 -99.938 190.438 C-100.618 189.633 -101.299 188.829 -102 188 C-102.66 188 -103.32 188 -104 188 C-104.26 187.415 -104.519 186.829 -104.787 186.226 C-106.086 183.842 -107.48 182.286 -109.408 180.381 C-110.102 179.69 -110.796 178.999 -111.512 178.287 C-112.261 177.552 -113.01 176.816 -113.781 176.059 C-114.551 175.295 -115.32 174.53 -116.112 173.743 C-118.57 171.303 -121.035 168.87 -123.5 166.438 C-125.964 164.001 -128.427 161.562 -130.888 159.121 C-132.418 157.602 -133.952 156.087 -135.488 154.574 C-136.183 153.886 -136.877 153.198 -137.592 152.49 C-138.203 151.887 -138.814 151.284 -139.444 150.663 C-141 149 -141 149 -143 146 C-143.66 146 -144.32 146 -145 146 C-145.165 145.505 -145.165 145.505 -146 143 C-146.66 143 -147.32 143 -148 143 C-148.254 142.426 -148.508 141.853 -148.77 141.262 C-151.028 137.11 -154.32 133.926 -158 131 C-162.826 129.528 -165.539 129.834 -170 132 Z M-178 172 C-180.324 174.084 -182.227 176.436 -184 179 C-185.037 182.242 -185.178 184.131 -184.5 187.438 C-182.711 190.493 -180.546 192.617 -177.988 195.043 C-176.196 196.807 -174.576 198.611 -172.957 200.531 C-168.2 206.014 -163.027 211.081 -157.875 216.188 C-156.889 217.168 -155.903 218.15 -154.918 219.131 C-153.105 220.935 -151.291 222.738 -149.476 224.54 C-147.762 226.243 -146.061 227.961 -144.372 229.689 C-142 232 -142 232 -139 234 C-135.861 234.287 -133.014 233.907 -130 233 C-127.548 231.201 -125.964 229.367 -124 227 C-125.534 223.345 -127.726 221.056 -130.543 218.297 C-131.452 217.398 -132.362 216.5 -133.299 215.574 C-134.261 214.632 -135.224 213.691 -136.188 212.75 C-141.687 207.353 -147.102 201.983 -152.112 196.126 C-155.844 191.923 -159.844 187.97 -163.818 183.997 C-165.332 182.48 -166.839 180.955 -168.346 179.43 C-169.309 178.463 -170.274 177.497 -171.238 176.531 C-172.105 175.66 -172.972 174.79 -173.865 173.893 C-174.569 173.268 -175.274 172.643 -176 172 C-176.66 172 -177.32 172 -178 172 Z " fill="#000000" transform="translate(199,1)"/>
</svg>
