<?xml version="1.0" encoding="UTF-8"?>
<!-- Generator: visioncortex VTracer 0.6.12 -->
<svg version="1.1" xmlns="http://www.w3.org/2000/svg" width="507" height="480">
<path d="M0 0 C8.442 2.881 15.231 7.475 21.35 13.961 C27.538 21.572 30.594 31.427 33.59 40.633 C34.358 42.909 35.126 45.185 35.896 47.461 C37.085 51.001 38.264 54.544 39.424 58.094 C40.558 61.553 41.727 64.999 42.902 68.445 C43.072 68.979 43.072 68.979 43.929 71.68 C44.883 74.433 45.788 76.892 47.312 79.375 C50.917 81.004 50.917 81.004 54.312 81.375 C63.051 84.117 71.079 87.634 78 93.75 C78.763 94.616 79.526 95.483 80.312 96.375 C80.854 96.925 81.395 97.476 81.953 98.043 C87.89 104.303 91.93 111.351 94.225 119.694 C96.072 128.532 96.722 136.938 96.662 145.957 C96.648 148.262 96.655 150.566 96.667 152.871 C96.697 159.41 96.693 165.948 96.673 172.487 C96.662 176.518 96.675 180.549 96.703 184.58 C96.708 186.105 96.704 187.631 96.69 189.156 C96.671 191.281 96.683 193.403 96.701 195.528 C96.698 196.733 96.696 197.938 96.693 199.179 C96.898 200.234 97.102 201.288 97.312 202.375 C99.743 205.149 99.743 205.149 102.312 207.375 C107.363 214.569 110.486 221.589 111.312 230.375 C111.456 234.4 111.453 238.422 111.445 242.449 C111.446 243.029 111.446 243.029 111.448 245.965 C111.449 248.415 111.447 250.865 111.443 253.315 C111.438 257.032 111.443 260.75 111.449 264.467 C111.449 266.857 111.447 269.247 111.445 271.637 C111.447 272.734 111.449 273.831 111.451 274.962 C111.415 287.028 111.044 297.539 105.312 308.375 C103.154 311.734 100.948 315.133 97.741 317.568 C97.27 318.165 96.798 318.761 96.312 319.375 C95.972 322.292 95.972 322.292 96.02 325.903 C96.024 326.562 96.028 327.222 96.033 327.901 C96.044 329.333 96.063 330.765 96.087 332.197 C96.125 334.479 96.145 336.759 96.159 339.041 C96.199 344.718 96.271 350.394 96.344 356.071 C96.403 360.852 96.45 365.634 96.48 370.416 C96.499 372.638 96.537 374.858 96.575 377.08 C96.722 390.665 94.827 403.043 88.332 415.145 C83.496 422.88 77.156 429.641 69.312 434.375 C59.816 439.309 51.791 441.683 41.147 441.606 C40.643 441.607 40.643 441.607 38.09 441.609 C34.717 441.61 31.344 441.596 27.971 441.583 C25.549 441.581 23.128 441.579 20.706 441.579 C15.495 441.577 10.284 441.569 5.074 441.558 C-3.167 441.54 -11.407 441.544 -19.647 441.551 C-22.469 441.554 -25.291 441.556 -28.113 441.558 C-28.466 441.558 -28.466 441.558 -30.25 441.56 C-38.269 441.566 -46.287 441.568 -54.306 441.569 C-55.039 441.569 -55.771 441.569 -56.526 441.569 C-68.402 441.568 -80.279 441.549 -92.155 441.525 C-104.36 441.501 -116.564 441.503 -128.768 441.529 C-136.291 441.543 -143.812 441.536 -151.334 441.501 C-157.1 441.477 -162.864 441.488 -168.63 441.513 C-170.992 441.518 -173.354 441.51 -175.716 441.49 C-178.944 441.464 -182.168 441.481 -185.395 441.509 C-186.328 441.491 -187.261 441.473 -188.223 441.455 C-190.884 441.504 -193.119 441.666 -195.688 442.375 C-198.73 444.387 -201.178 446.743 -203.688 449.375 C-218.763 462.613 -235.702 471.906 -255.375 476.25 C-257.474 476.655 -259.578 477.031 -261.688 477.375 C-262.742 477.557 -263.796 477.739 -264.883 477.926 C-285.35 480.342 -305.833 477.954 -324.887 470.059 C-344.264 461.625 -360.553 449.231 -373.312 432.25 C-384.222 417.199 -392.17 398.877 -394.688 380.375 C-394.797 379.584 -394.907 378.792 -395.02 377.977 C-397.399 357.858 -394.442 337.852 -386.772 319.142 C-378.264 299.826 -365.2 284.185 -348.793 271.105 C-345.045 268.427 -340.998 266.347 -336.931 264.204 C-336.582 264.02 -336.582 264.02 -334.819 263.085 C-333.11 262.18 -331.399 261.277 -329.688 260.375 C-329.686 259.686 -329.685 258.997 -329.683 258.287 C-329.646 241.475 -329.587 224.664 -329.504 207.852 C-329.464 199.722 -329.431 191.592 -329.417 183.461 C-329.403 176.37 -329.376 169.278 -329.333 162.187 C-329.31 158.436 -329.295 154.686 -329.296 150.936 C-329.296 147.396 -329.278 143.856 -329.246 140.316 C-329.234 138.418 -329.241 136.521 -329.249 134.623 C-329.126 124.378 -326.934 115.239 -322.062 106.188 C-316.776 98.019 -309.771 91.342 -301.266 86.621 C-291.567 81.934 -282.715 80.184 -272.012 80.516 C-269.369 80.547 -266.726 80.567 -264.083 80.586 C-262.325 80.611 -260.568 80.657 -258.812 80.728 C-241.418 81.385 -227.081 75.591 -211.315 69.082 C-204.312 66.194 -197.235 63.534 -190.127 60.918 C-187.352 59.896 -184.58 58.866 -181.808 57.836 C-179.694 57.05 -177.58 56.267 -175.465 55.483 C-171.739 54.103 -168.014 52.721 -164.288 51.339 C-142.114 43.112 -119.929 34.917 -97.731 26.754 C-86.612 22.665 -75.496 18.566 -64.391 14.438 C-62.266 13.648 -60.141 12.859 -58.016 12.071 C-54.103 10.618 -50.192 9.161 -46.281 7.701 C-14.681 -4.058 -14.681 -4.058 0 0 Z M-26.812 24.539 C-27.744 24.882 -28.676 25.225 -29.637 25.579 C-32.662 26.699 -35.674 27.849 -38.688 29 C-40.809 29.792 -42.931 30.581 -45.054 31.369 C-49.306 32.951 -53.553 34.544 -57.796 36.149 C-62.837 38.057 -67.885 39.94 -72.941 41.805 C-78.5 43.857 -84.055 45.919 -89.605 47.992 C-96.415 50.534 -103.231 53.056 -110.051 55.57 C-111.035 55.933 -112.019 56.296 -113.033 56.67 C-114.024 57.036 -115.015 57.401 -116.036 57.778 C-135.292 64.878 -154.522 72.035 -173.688 79.375 C-173.688 79.705 -173.688 80.035 -173.688 80.375 C-108.678 80.375 -43.668 80.375 23.312 80.375 C19.935 67.992 19.935 67.992 17.719 61.984 C17.486 61.351 17.253 60.717 17.013 60.064 C16.528 58.746 16.041 57.429 15.551 56.112 C14.809 54.116 14.074 52.117 13.34 50.117 C6.32 31.087 6.32 31.087 0.312 25.375 C-3.275 22.872 -6.493 22.126 -10.762 21.607 C-16.783 21.117 -21.247 22.367 -26.812 24.539 Z M-291.875 109.125 C-297.34 113.497 -301.381 118.043 -304.062 124.562 C-305.905 129.52 -306.813 134.164 -306.808 139.456 C-306.809 140.456 -306.811 141.455 -306.812 142.486 C-306.808 143.571 -306.805 144.656 -306.801 145.775 C-306.801 146.926 -306.801 148.078 -306.801 149.265 C-306.801 153.068 -306.793 156.872 -306.785 160.676 C-306.783 163.314 -306.782 165.953 -306.781 168.591 C-306.778 174.824 -306.77 181.057 -306.76 187.29 C-306.748 194.388 -306.743 201.486 -306.738 208.584 C-306.727 223.181 -306.71 237.778 -306.688 252.375 C-305.396 252.234 -304.105 252.094 -302.775 251.948 C-301.057 251.764 -299.339 251.579 -297.621 251.395 C-297.197 251.348 -297.197 251.348 -295.051 251.113 C-272.857 248.741 -251.858 252.232 -231.465 261.191 C-222.244 265.447 -214.433 270.848 -206.688 277.375 C-205.816 278.083 -204.945 278.79 -204.047 279.52 C-189.736 291.648 -179.512 308.02 -173.004 325.496 C-166.23 344.763 -164.551 365.102 -168.312 385.188 C-170.654 396.854 -174.993 407.482 -179.688 418.375 C-179.358 418.705 -179.028 419.035 -178.688 419.375 C-175.905 419.477 -173.148 419.514 -170.365 419.509 C-169.482 419.511 -168.599 419.513 -167.688 419.516 C-164.705 419.522 -161.721 419.521 -158.737 419.52 C-156.607 419.523 -154.477 419.527 -152.347 419.53 C-146.54 419.539 -140.734 419.542 -134.928 419.542 C-130.082 419.543 -125.237 419.547 -120.392 419.55 C-108.953 419.559 -97.515 419.561 -86.077 419.56 C-74.284 419.56 -62.491 419.57 -50.698 419.586 C-40.576 419.599 -30.453 419.604 -20.331 419.604 C-14.285 419.604 -8.239 419.606 -2.193 419.617 C3.502 419.627 9.196 419.627 14.891 419.62 C16.976 419.618 19.062 419.621 21.147 419.627 C45.979 419.694 45.979 419.694 55.062 415.188 C60.335 411.949 64.556 408.268 67.785 402.949 C72.712 393.484 73.598 385.808 73.508 375.223 C73.505 373.967 73.502 372.712 73.499 371.419 C73.49 368.103 73.472 364.787 73.45 361.471 C73.429 358.079 73.42 354.687 73.41 351.295 C73.388 344.655 73.355 338.015 73.312 331.375 C70.498 330.437 68.839 330.257 65.932 330.275 C65.037 330.278 64.141 330.281 63.219 330.284 C62.238 330.292 61.258 330.301 60.248 330.309 C59.214 330.314 58.179 330.318 57.113 330.323 C54.862 330.334 52.612 330.346 50.361 330.361 C46.791 330.383 43.221 330.397 39.651 330.409 C29.499 330.442 19.347 330.484 9.196 330.546 C2.987 330.584 -3.221 330.607 -9.43 330.621 C-11.79 330.629 -14.15 330.642 -16.509 330.662 C-41.473 330.863 -41.473 330.863 -53.055 325.945 C-61.374 321.151 -67.029 316.633 -72.078 308.355 C-76.493 300.18 -78.783 291.947 -78.849 282.652 C-78.858 281.55 -78.868 280.448 -78.878 279.312 C-78.882 278.134 -78.886 276.956 -78.891 275.742 C-78.896 274.514 -78.902 273.286 -78.908 272.02 C-78.917 269.423 -78.924 266.826 -78.928 264.229 C-78.937 260.285 -78.968 256.342 -79 252.398 C-79.007 249.867 -79.012 247.336 -79.016 244.805 C-79.028 243.639 -79.04 242.473 -79.053 241.271 C-79.025 230.787 -77.201 221.049 -72.188 211.754 C-67.728 204.682 -62.45 199.645 -55.148 195.59 C-48.945 192.528 -42.838 190.27 -35.879 190.217 C-34.914 190.207 -33.949 190.197 -32.955 190.187 C-32.429 190.184 -32.429 190.184 -29.769 190.17 C-29.212 190.165 -29.212 190.165 -26.397 190.14 C-22.718 190.108 -19.039 190.083 -15.359 190.059 C-12.809 190.038 -10.259 190.017 -7.709 189.996 C-1.681 189.946 4.347 189.901 10.374 189.858 C17.238 189.808 24.101 189.753 30.964 189.698 C45.08 189.584 59.196 189.477 73.312 189.375 C73.389 181.583 73.441 173.791 73.477 165.999 C73.492 163.351 73.513 160.703 73.539 158.055 C73.575 154.237 73.592 150.42 73.605 146.602 C73.621 145.428 73.636 144.255 73.652 143.046 C73.654 134.942 72.576 127.99 68.988 120.676 C64.934 114.762 60.544 109.697 54.184 106.207 C47.024 103.09 40.577 102.811 32.839 102.867 C31.497 102.862 30.155 102.856 28.813 102.848 C25.149 102.832 21.486 102.84 17.822 102.852 C13.861 102.861 9.901 102.847 5.94 102.836 C-1.809 102.818 -9.558 102.822 -17.307 102.834 C-23.607 102.843 -29.906 102.844 -36.206 102.84 C-37.104 102.839 -38.002 102.839 -38.926 102.838 C-40.75 102.837 -42.574 102.835 -44.398 102.834 C-61.488 102.823 -78.578 102.836 -95.668 102.857 C-110.321 102.875 -124.974 102.872 -139.627 102.854 C-156.658 102.832 -173.688 102.824 -190.718 102.836 C-192.535 102.837 -194.352 102.838 -196.169 102.84 C-197.063 102.84 -197.957 102.841 -198.878 102.842 C-205.168 102.845 -211.457 102.839 -217.747 102.83 C-225.416 102.819 -233.084 102.822 -240.753 102.843 C-244.663 102.853 -248.573 102.858 -252.483 102.844 C-256.067 102.832 -259.65 102.839 -263.234 102.86 C-265.135 102.867 -267.036 102.854 -268.937 102.84 C-277.767 102.92 -284.188 104.905 -291.875 109.125 Z M-49.5 217.062 C-52.663 220.407 -54.903 224.134 -56.688 228.375 C-58.035 234.268 -57.867 240.226 -57.891 246.238 C-57.896 247.385 -57.902 248.531 -57.908 249.713 C-57.917 252.134 -57.924 254.556 -57.928 256.977 C-57.937 260.664 -57.968 264.35 -58 268.037 C-58.007 270.396 -58.012 272.755 -58.016 275.113 C-58.028 276.207 -58.04 277.301 -58.053 278.429 C-58.034 284.913 -57.348 290.418 -54.688 296.375 C-53.145 298.863 -53.145 298.863 -51.5 300.688 C-50.97 301.302 -50.44 301.917 -49.895 302.551 C-46.732 305.165 -43.553 306.976 -39.688 308.375 C-36.023 308.927 -32.418 308.923 -28.717 308.893 C-27.646 308.9 -26.575 308.907 -25.471 308.914 C-21.949 308.931 -18.428 308.92 -14.906 308.906 C-12.448 308.909 -9.99 308.913 -7.532 308.918 C-2.388 308.924 2.756 308.915 7.901 308.896 C14.485 308.874 21.068 308.887 27.652 308.911 C32.726 308.925 37.799 308.921 42.873 308.91 C45.3 308.908 47.727 308.911 50.154 308.92 C53.551 308.93 56.946 308.915 60.342 308.893 C61.338 308.901 62.335 308.909 63.362 308.917 C68.85 308.851 72.856 308.138 77.68 305.464 C82.361 302.343 85.463 298.158 88.312 293.375 C89.372 290.139 89.45 287.115 89.474 283.724 C89.483 282.589 89.493 281.453 89.503 280.284 C89.507 279.061 89.511 277.838 89.516 276.578 C89.521 275.315 89.527 274.053 89.533 272.752 C89.542 270.079 89.549 267.406 89.553 264.732 C89.558 261.325 89.582 257.919 89.611 254.512 C89.634 251.242 89.636 247.973 89.641 244.703 C89.647 244.096 89.647 244.096 89.678 241.022 C89.661 234.4 89.155 229.384 86.312 223.375 C84.206 219.92 81.69 217.236 78.25 215.086 C73.876 212.851 69.957 211.256 64.995 211.228 C64.113 211.221 63.232 211.214 62.323 211.206 C61.841 211.205 61.841 211.205 59.4 211.198 C58.382 211.191 57.364 211.185 56.315 211.178 C52.938 211.158 49.561 211.147 46.184 211.137 C45.029 211.133 43.875 211.129 42.686 211.124 C36.573 211.104 30.46 211.089 24.347 211.08 C18.045 211.069 11.743 211.034 5.44 210.995 C0.586 210.968 -4.269 210.96 -9.124 210.957 C-11.447 210.952 -13.769 210.94 -16.091 210.922 C-19.351 210.897 -22.61 210.898 -25.869 210.905 C-26.82 210.892 -27.77 210.879 -28.75 210.866 C-36.544 210.926 -42.832 213.062 -49.5 217.062 Z M-333.969 288.305 C-347.931 298.937 -359.187 311.884 -366.352 328.027 C-372.756 343.36 -374.94 359.733 -372.938 376.188 C-370.399 392.308 -364.006 407.709 -353.988 420.664 C-342.065 434.713 -328.847 444.361 -311.676 451.121 C-301.545 454.499 -291.724 455.935 -281.062 455.875 C-279.843 455.869 -278.624 455.862 -277.368 455.855 C-260.611 455.52 -246.032 450.975 -231.688 442.375 C-227.835 439.907 -224.236 437.261 -220.688 434.375 C-219.848 433.711 -219.009 433.047 -218.145 432.363 C-206.191 422.337 -197.801 408.541 -192.441 393.992 C-191.413 390.805 -190.511 387.621 -189.688 384.375 C-189.462 383.509 -189.236 382.642 -189.004 381.75 C-185.657 366.606 -187.132 350.108 -191.688 335.375 C-197.846 318.516 -207.999 303.995 -221.688 292.375 C-235.608 281.492 -251.807 275.161 -269.218 272.672 C-291.97 269.933 -314.94 275.523 -333.969 288.305 Z " fill="#000000" transform="translate(395.6875,1.625)"/>
<path d="M0 0 C4.689 2.08 8.499 5.031 11.812 8.938 C14.531 13.557 16.019 18.202 16.25 23.562 C15.995 28.094 15.023 31.963 12.812 35.938 C9.863 40.205 6.601 43.794 2.062 46.375 C-2.86 48.508 -7.851 49.113 -13.188 48.938 C-17.479 48.28 -20.813 46.886 -24.383 44.422 C-29.418 40.297 -32.578 36.096 -34.938 30 C-35.676 23.908 -35.35 18.865 -33.227 13.109 C-31.152 8.772 -28.296 5.439 -24.383 2.652 C-17.048 -1.739 -8.191 -2.644 0 0 Z " fill="#000000" transform="translate(392.1875,238.0625)"/>
<path d="M0 0 C3.562 0.875 3.562 0.875 6 2.938 C7.547 5.845 7.796 7.015 7.812 10.188 C7.73 11.404 7.648 12.621 7.562 13.875 C8.346 13.937 9.13 13.999 9.938 14.062 C15.98 15.417 21.195 18.349 26.375 21.688 C30.034 25.346 32.825 29.177 34.203 34.219 C34.555 36.514 34.726 38.559 34.562 40.875 C33.25 43.875 33.25 43.875 31.562 45.875 C29.562 46.875 29.562 46.875 26.25 47.188 C22.562 46.875 22.562 46.875 19.812 45.25 C17.562 42.875 17.562 42.875 16.125 39.875 C14.562 36.875 14.562 36.875 11.875 34.625 C7.381 32.251 3.414 30.875 -1.703 30.875 C-6.803 31.291 -10.903 32.517 -15.438 34.875 C-17.312 36.188 -17.312 36.188 -18.438 37.875 C-19.312 40.75 -19.312 40.75 -19.438 43.875 C-18.562 46.5 -18.562 46.5 -16.438 48.875 C-10.367 52.241 -3.796 54.007 2.875 55.75 C20.707 60.676 20.707 60.676 27.73 66.75 C31.077 70.283 33.662 74.015 35.125 78.68 C36.18 83.972 36.341 89.109 34.871 94.332 C32.734 99.58 29.746 104.042 25.562 107.875 C21.306 110.925 16.443 113.033 11.562 114.875 C10.243 114.875 8.922 114.875 7.562 114.875 C7.666 116.071 7.769 117.267 7.875 118.5 C7.866 120.914 7.715 122.546 6.695 124.742 C5.5 126.375 5.5 126.375 2.562 128.875 C-0.938 129.5 -0.938 129.5 -4.438 128.875 C-7.312 127.312 -7.312 127.312 -9.438 124.875 C-10.223 121.431 -10.438 118.396 -10.438 114.875 C-11.386 114.813 -12.335 114.751 -13.312 114.688 C-19.34 113.797 -24.648 110.959 -29.492 107.34 C-33.624 103.59 -35.987 99.555 -37.848 94.309 C-38.438 91.875 -38.438 91.875 -38.375 87.938 C-37.438 84.875 -37.438 84.875 -36.312 83 C-33.302 81.194 -30.933 80.934 -27.438 80.875 C-24.25 82.312 -24.25 82.312 -21.438 84.875 C-20.765 86.185 -20.142 87.521 -19.562 88.875 C-18.543 91.069 -17.708 92.621 -15.941 94.281 C-11.447 96.987 -7.055 97.185 -1.875 97.312 C3.719 97.157 7.788 96.805 12.562 93.875 C14.438 92.562 14.438 92.562 15.562 90.875 C16.5 88.062 16.5 88.062 16.562 84.875 C15.447 81.839 14.958 80.878 12.562 78.875 C5.559 75.243 -2.106 73.389 -9.688 71.375 C-17.52 69.288 -23.916 66.837 -30.188 61.562 C-33.571 57.521 -36.644 53.376 -38.25 48.312 C-38.775 41.484 -38.296 36.118 -35.438 29.875 C-32.528 24.965 -29.081 21.044 -24.301 17.906 C-19.788 15.409 -15.664 13.875 -10.438 13.875 C-10.4 13.272 -10.363 12.668 -10.324 12.047 C-9.786 5.509 -9.786 5.509 -8.062 2.375 C-5.432 -0.054 -3.529 -0.128 0 0 Z " fill="#000000" transform="translate(115.4375,301.125)"/>
</svg>
