<?xml version="1.0" encoding="UTF-8"?>
<!-- Generator: visioncortex VTracer 0.6.12 -->
<svg version="1.1" xmlns="http://www.w3.org/2000/svg" width="513" height="421">
<path d="M0 0 C7.207 3.373 13.207 7.377 19.168 12.641 C21.224 14.351 23.035 15.497 25.473 16.559 C26.055 15.99 26.638 15.422 27.238 14.836 C36.733 5.894 46.802 -0.141 59.473 -3.441 C69.972 -5.605 81.492 -5.377 91.773 -2.348 C92.219 -2.198 92.219 -2.198 94.473 -1.441 C95.332 -1.163 96.192 -0.885 97.078 -0.598 C103.635 1.761 108.957 5.35 114.473 9.559 C114.988 9.94 114.988 9.94 117.598 11.871 C126.47 20.165 132.588 30.19 136.539 41.652 C140.641 56.077 140.685 70.646 137.241 85.166 C135.596 91.59 133.392 97.598 130.473 103.559 C129.982 104.591 129.49 105.624 128.984 106.688 C122.104 120.334 112.289 131.839 100.758 141.789 C96.432 145.562 92.259 149.481 88.098 153.434 C82.791 158.452 77.455 163.423 72 168.281 C68.748 171.212 65.549 174.198 62.348 177.184 C58.158 181.089 53.951 184.952 49.594 188.672 C47.811 190.258 46.095 191.879 44.383 193.539 C43.822 194.077 43.26 194.614 42.682 195.168 C41.575 196.23 40.477 197.302 39.39 198.385 C36.087 201.536 32.902 203.785 28.53 205.204 C25.549 205.718 23.267 205.37 20.401 204.454 C16.969 202.861 14.355 200.551 11.598 197.996 C10.994 197.458 10.39 196.92 9.768 196.366 C7.99 194.777 6.23 193.17 4.473 191.559 C2.744 189.995 1.015 188.433 -0.715 186.871 C-1.509 186.149 -2.303 185.427 -3.121 184.684 C-5.595 182.499 -8.138 180.433 -10.715 178.371 C-16.781 173.469 -22.409 168.136 -28.082 162.789 C-31.214 159.839 -34.411 156.979 -37.668 154.168 C-41.679 150.696 -45.601 147.126 -49.527 143.559 C-50.105 143.044 -50.682 142.529 -51.277 141.999 C-67.263 127.731 -79.725 112.186 -86.648 91.661 C-91.103 77.799 -92.267 63.245 -89.449 48.876 C-86.445 35.671 -80.467 24.385 -71.348 14.402 C-67.503 10.408 -63.329 7.322 -58.527 4.559 C-57.591 4.016 -56.656 3.473 -55.691 2.914 C-38.482 -6.368 -18.108 -7.4 0 0 Z M-50.527 26.559 C-53.215 28.934 -53.215 28.934 -55.527 31.559 C-56.02 32.072 -56.512 32.585 -57.02 33.113 C-62.036 38.53 -64.833 44.531 -66.777 51.621 C-69.029 63.412 -67.894 75.284 -64.212 86.636 C-58.267 103.333 -47.079 116.143 -33.859 127.512 C-30.865 130.14 -27.948 132.848 -25.027 135.559 C-20.899 139.387 -16.742 143.167 -12.484 146.852 C-10.142 148.895 -7.835 150.975 -5.527 153.059 C-1.229 156.934 3.099 160.769 7.473 164.559 C8.01 165.028 8.547 165.497 9.101 165.98 C10.951 167.593 12.805 169.201 14.66 170.809 C15.255 171.328 15.849 171.848 16.462 172.384 C19.648 175.134 22.765 177.519 26.473 179.559 C27.318 178.701 28.164 177.844 29.035 176.961 C30.181 175.806 31.327 174.651 32.473 173.496 C33.026 172.935 33.579 172.373 34.148 171.795 C37.783 168.14 41.547 164.703 45.446 161.333 C48.829 158.371 52.082 155.273 55.348 152.184 C60.506 147.325 65.697 142.515 70.984 137.797 C74.575 134.567 78.118 131.287 81.65 127.995 C84.118 125.701 86.594 123.456 89.172 121.285 C99.487 112.573 107.436 101.086 112.473 88.559 C116.706 76.758 117.648 65.574 116.035 53.203 C114.283 44.739 110.153 38.261 104.883 31.527 C99.618 25.658 92.589 22.489 85.309 19.742 C78.613 17.772 71.841 17.952 65.043 19.176 C55.754 21.473 48.907 25.367 41.998 31.967 C39.578 34.349 37.217 36.77 34.883 39.238 C32.724 41.317 31.254 42.543 28.473 43.559 C22.997 44.089 22.997 44.089 20.473 43.559 C16.016 40.988 12.68 37.907 9.16 34.184 C2.729 27.584 -3.516 22.812 -12.387 20.102 C-26.164 16.607 -38.708 18.648 -50.527 26.559 Z " fill="#000000" transform="translate(232.52734375,4.44140625)"/>
<path d="M0 0 C13.321 5.499 24.135 13.632 33 25 C40.384 34.805 44.646 46.354 46.719 58.43 C48.229 72.229 46.273 85.448 40.875 98.188 C35.842 109.399 28.592 118.29 19 126 C21.21 127.473 23.235 128.673 25.59 129.848 C44.801 139.597 62.385 152.972 74.545 171.049 C86.703 189.826 93.643 209.3 94.887 231.675 C94.924 232.442 94.962 233.21 95 234 C95.019 234.369 95.019 234.369 95.117 236.235 C95.633 247.518 95.633 247.518 93.59 252.301 C92 255 92 255 90.25 256.812 C87.1 258.475 84.553 258.875 81 259 C78.023 257.754 76.234 256.219 73.891 254.023 C71.96 250.935 71.688 249.802 71.496 246.297 C71.462 244.448 71.443 242.599 71.438 240.75 C70.956 221.814 67.175 205.806 57.891 189.074 C54.99 184.358 51.598 180.195 48 176 C47.544 175.399 47.087 174.799 46.617 174.18 C38.884 164.223 26.308 156.166 15 151 C9.121 148.612 3.103 146.723 -3 145 C-3.929 144.732 -4.859 144.464 -5.816 144.188 C-20.564 140.779 -37.422 142.057 -51.844 146.315 C-69.843 152.031 -85.028 161.224 -98 175 C-109.793 188.376 -116.243 204.265 -120.598 221.344 C-121.224 225.482 -121.334 229.634 -121.5 233.812 C-122.005 246.353 -122.005 246.353 -123 252 C-125.5 254.937 -125.5 254.937 -128 257 C-128.33 257.33 -128.66 257.66 -129 258 C-132.382 258.438 -135.623 258.487 -139 258 C-142.063 255.562 -142.063 255.562 -144 253 C-144.33 252.67 -144.66 252.34 -145 252 C-146.725 227.889 -143.581 206.983 -133.223 185.23 C-124.678 167.925 -111.26 152.354 -95.562 141.125 C-87.243 135.663 -78.332 130.517 -69 127 C-70.993 124.416 -73.003 121.997 -75.312 119.688 C-76.199 118.801 -77.086 117.914 -78 117 C-78.263 116.747 -78.263 116.747 -79.594 115.469 C-86.898 107.899 -91.807 97.549 -94.938 87.562 C-98.217 73.381 -97.492 58.766 -93.312 44.875 C-88.722 32.166 -80.677 20.626 -70.438 11.812 C-50.139 -3.602 -24.136 -8.955 0 0 Z M-52.113 26.938 C-60.817 33.156 -66.263 40.087 -70.66 49.688 C-74.414 58.967 -74.957 68.147 -73.57 78.078 C-71.598 87.381 -67.02 95.32 -61.25 102.812 C-55.243 109.381 -46.341 114.073 -38 117 C-29.111 119.26 -18.99 118.904 -10.188 116.438 C-1.933 113.516 5.144 109.242 11.25 102.938 C16.778 96.295 22.121 86.91 23.789 78.312 C24.669 68.671 24.972 59.014 21 50 C16.657 40.802 11.591 33.365 3.27 27.414 C-4.175 22.775 -12.193 19.429 -20.961 18.781 C-32.574 18.45 -42.234 20.739 -52.113 26.938 Z " fill="#000000" transform="translate(146,162)"/>
<path d="M0 0 C10.72 4.496 18.916 10.737 27 19 C27.739 19.706 28.477 20.413 29.238 21.141 C36.887 28.923 42.027 39.559 45 50 C46.222 56.33 46.304 62.697 46.375 69.125 C46.389 70.127 46.403 71.128 46.418 72.16 C46.344 83.441 43.09 93.965 38 104 C32.59 112.462 26.113 119.947 19 127 C20.076 127.473 21.153 127.946 22.262 128.434 C37.196 135.136 49.22 143.681 61 155 C61.347 155.304 61.347 155.304 63.105 156.844 C77.451 169.858 85.879 189.089 91.957 207.074 C94.814 217.047 95.364 227.053 95.375 237.375 C95.399 238.606 95.424 239.837 95.449 241.105 C95.477 249.702 95.477 249.702 94.217 253.13 C92.848 255.349 91.34 256.797 89.105 258.129 C85.166 259.019 83.19 259.056 79.188 257.875 C76 256 76 256 74.125 254.312 C71.544 249.008 71.905 242.451 71.761 236.644 C71.283 219.549 67.397 204.952 59 190 C56.566 186.111 53.926 182.532 51 179 C50.651 178.575 50.651 178.575 48.883 176.426 C37.736 163.474 23.885 154.15 7.938 148.125 C-9.163 142.566 -26.608 140.756 -44.316 144.49 C-63.248 148.971 -79.174 157.431 -93.51 170.574 C-105.112 181.681 -113.116 196.746 -117.934 211.945 C-119.905 218.869 -121.021 225.51 -121.141 232.723 C-121.16 233.756 -121.179 234.789 -121.199 235.854 C-121.233 237.997 -121.251 240.14 -121.254 242.283 C-121.434 249.88 -121.434 249.88 -123.024 253.027 C-124.747 255.215 -126.598 256.776 -129.027 258.129 C-131.061 258.59 -132.912 258.947 -135 259 C-138.458 257.826 -140.37 256.696 -142.812 254 C-144.654 250.898 -145.011 248.749 -145.168 245.113 C-145.397 221.509 -141.286 199.747 -129.816 178.961 C-123.883 168.699 -116.403 160.302 -108 152 C-107.578 151.573 -107.578 151.573 -105.445 149.414 C-95.075 139.463 -82.155 132.542 -69 127 C-69.736 126.267 -70.472 125.533 -71.23 124.777 C-82.241 113.736 -90.7 102.22 -95 87 C-98.313 74.471 -98.29 61.251 -94.907 48.722 C-90.763 34.946 -83.19 23.827 -72.875 13.875 C-62.907 5.107 -51.28 -0.842 -38.246 -3.578 C-25.271 -5.264 -12.271 -4.718 0 0 Z M-54 28 C-61.764 33.521 -66.781 40.503 -71 49 C-74.411 57.722 -74.723 66.735 -74 76 C-72.582 85.113 -68.619 93.031 -63.219 100.445 C-57.604 107.234 -51.025 111.811 -42.969 115.32 C-33.551 118.654 -23.979 119.157 -14.148 117.527 C-11.645 116.864 -9.374 116.033 -7 115 C-6.121 114.621 -5.242 114.242 -4.336 113.852 C3.373 110.095 9.782 104.823 15 98 C19.799 90.733 23.222 82.716 24 74 C24.041 73.582 24.041 73.582 24.246 71.469 C24.692 62.286 22.516 53.149 18.492 44.914 C13.871 37.24 8.334 30.627 0.629 25.957 C-8.718 20.915 -17.237 18.524 -27.891 18.754 C-37.589 19.521 -45.905 22.66 -54 28 Z " fill="#000000" transform="translate(418,162)"/>
</svg>
